<svg aria-roledescription="flowchart-v2" role="graphics-document document" viewBox="0 0 3578.390625 987" style="max-width: 3578.39px; background-color: white;" class="flowchart" xmlns:xlink="http://www.w3.org/1999/xlink" xmlns="http://www.w3.org/2000/svg" width="100%" id="my-svg"><style>#my-svg{font-size:16px;fill:#333;}@keyframes edge-animation-frame{from{stroke-dashoffset:0;}}@keyframes dash{to{stroke-dashoffset:0;}}#my-svg .edge-animation-slow{stroke-dasharray:9,5!important;stroke-dashoffset:900;animation:dash 50s linear infinite;stroke-linecap:round;}#my-svg .edge-animation-fast{stroke-dasharray:9,5!important;stroke-dashoffset:900;animation:dash 20s linear infinite;stroke-linecap:round;}#my-svg .error-icon{fill:hsl(220.5882352941, 100%, 98.3333333333%);}#my-svg .error-text{fill:rgb(8.5000000002, 5.7500000001, 0);stroke:rgb(8.5000000002, 5.7500000001, 0);}#my-svg .edge-thickness-normal{stroke-width:1px;}#my-svg .edge-thickness-thick{stroke-width:3.5px;}#my-svg .edge-pattern-solid{stroke-dasharray:0;}#my-svg .edge-thickness-invisible{stroke-width:0;fill:none;}#my-svg .edge-pattern-dashed{stroke-dasharray:3;}#my-svg .edge-pattern-dotted{stroke-dasharray:2;}#my-svg .marker{fill:#0b0b0b;stroke:#0b0b0b;}#my-svg .marker.cross{stroke:#0b0b0b;}#my-svg svg{font-size:16px;}#my-svg p{margin:0;}#my-svg .label{color:#333;}#my-svg .cluster-label text{fill:rgb(8.5000000002, 5.7500000001, 0);}#my-svg .cluster-label span{color:rgb(8.5000000002, 5.7500000001, 0);}#my-svg .cluster-label span p{background-color:transparent;}#my-svg .label text,#my-svg span{fill:#333;color:#333;}#my-svg .node rect,#my-svg .node circle,#my-svg .node ellipse,#my-svg .node polygon,#my-svg .node path{fill:#fff4dd;stroke:hsl(40.5882352941, 60%, 83.3333333333%);stroke-width:1px;}#my-svg .rough-node .label text,#my-svg .node .label text,#my-svg .image-shape .label,#my-svg .icon-shape .label{text-anchor:middle;}#my-svg .node .katex path{fill:#000;stroke:#000;stroke-width:1px;}#my-svg .rough-node .label,#my-svg .node .label,#my-svg .image-shape .label,#my-svg .icon-shape .label{text-align:center;}#my-svg .node.clickable{cursor:pointer;}#my-svg .root .anchor path{fill:#0b0b0b!important;stroke-width:0;stroke:#0b0b0b;}#my-svg .arrowheadPath{fill:#0b0b0b;}#my-svg .edgePath .path{stroke:#0b0b0b;stroke-width:2.0px;}#my-svg .flowchart-link{stroke:#0b0b0b;fill:none;}#my-svg .edgeLabel{background-color:hsl(-79.4117647059, 100%, 93.3333333333%);text-align:center;}#my-svg .edgeLabel p{background-color:hsl(-79.4117647059, 100%, 93.3333333333%);}#my-svg .edgeLabel rect{opacity:0.5;background-color:hsl(-79.4117647059, 100%, 93.3333333333%);fill:hsl(-79.4117647059, 100%, 93.3333333333%);}#my-svg .labelBkg{background-color:rgba(243.9999999999, 220.9999999998, 255, 0.5);}#my-svg .cluster rect{fill:hsl(220.5882352941, 100%, 98.3333333333%);stroke:hsl(220.5882352941, 60%, 88.3333333333%);stroke-width:1px;}#my-svg .cluster text{fill:rgb(8.5000000002, 5.7500000001, 0);}#my-svg .cluster span{color:rgb(8.5000000002, 5.7500000001, 0);}#my-svg div.mermaidTooltip{position:absolute;text-align:center;max-width:200px;padding:2px;font-size:12px;background:hsl(220.5882352941, 100%, 98.3333333333%);border:1px solid hsl(220.5882352941, 60%, 88.3333333333%);border-radius:2px;pointer-events:none;z-index:100;}#my-svg .flowchartTitleText{text-anchor:middle;font-size:18px;fill:#333;}#my-svg rect.text{fill:none;stroke-width:0;}#my-svg .icon-shape,#my-svg .image-shape{background-color:hsl(-79.4117647059, 100%, 93.3333333333%);text-align:center;}#my-svg .icon-shape p,#my-svg .image-shape p{background-color:hsl(-79.4117647059, 100%, 93.3333333333%);padding:2px;}#my-svg .icon-shape rect,#my-svg .image-shape rect{opacity:0.5;background-color:hsl(-79.4117647059, 100%, 93.3333333333%);fill:hsl(-79.4117647059, 100%, 93.3333333333%);}#my-svg .label-icon{display:inline-block;height:1em;overflow:visible;vertical-align:-0.125em;}#my-svg .node .label-icon path{fill:currentColor;stroke:revert;stroke-width:revert;}#my-svg :root{--mermaid-font-family:"trebuchet ms",verdana,arial,sans-serif;}#my-svg .node&gt;*{fill:#161b22!important;stroke:#8b949e!important;stroke-width:1px!important;color:#e6edf3!important;rx:8!important;ry:8!important;}#my-svg .node span{fill:#161b22!important;stroke:#8b949e!important;stroke-width:1px!important;color:#e6edf3!important;rx:8!important;ry:8!important;}#my-svg .node tspan{fill:#e6edf3!important;}#my-svg .layer&gt;*{fill:transparent!important;stroke:#30363d!important;stroke-width:1px!important;color:#c9d1d9!important;}#my-svg .layer span{fill:transparent!important;stroke:#30363d!important;stroke-width:1px!important;color:#c9d1d9!important;}#my-svg .layer tspan{fill:#c9d1d9!important;}#my-svg .endpoint&gt;*{fill:#0f141a!important;stroke:#7d8590!important;stroke-width:1px!important;color:#e6edf3!important;rx:8!important;ry:8!important;}#my-svg .endpoint span{fill:#0f141a!important;stroke:#7d8590!important;stroke-width:1px!important;color:#e6edf3!important;rx:8!important;ry:8!important;}#my-svg .endpoint tspan{fill:#e6edf3!important;}</style><g><marker orient="auto" markerHeight="8" markerWidth="8" markerUnits="userSpaceOnUse" refY="5" refX="5" viewBox="0 0 10 10" class="marker flowchart-v2" id="my-svg_flowchart-v2-pointEnd"><path style="stroke-width: 1; stroke-dasharray: 1, 0;" class="arrowMarkerPath" d="M 0 0 L 10 5 L 0 10 z"/></marker><marker orient="auto" markerHeight="8" markerWidth="8" markerUnits="userSpaceOnUse" refY="5" refX="4.5" viewBox="0 0 10 10" class="marker flowchart-v2" id="my-svg_flowchart-v2-pointStart"><path style="stroke-width: 1; stroke-dasharray: 1, 0;" class="arrowMarkerPath" d="M 0 5 L 10 10 L 10 0 z"/></marker><marker orient="auto" markerHeight="11" markerWidth="11" markerUnits="userSpaceOnUse" refY="5" refX="11" viewBox="0 0 10 10" class="marker flowchart-v2" id="my-svg_flowchart-v2-circleEnd"><circle style="stroke-width: 1; stroke-dasharray: 1, 0;" class="arrowMarkerPath" r="5" cy="5" cx="5"/></marker><marker orient="auto" markerHeight="11" markerWidth="11" markerUnits="userSpaceOnUse" refY="5" refX="-1" viewBox="0 0 10 10" class="marker flowchart-v2" id="my-svg_flowchart-v2-circleStart"><circle style="stroke-width: 1; stroke-dasharray: 1, 0;" class="arrowMarkerPath" r="5" cy="5" cx="5"/></marker><marker orient="auto" markerHeight="11" markerWidth="11" markerUnits="userSpaceOnUse" refY="5.2" refX="12" viewBox="0 0 11 11" class="marker cross flowchart-v2" id="my-svg_flowchart-v2-crossEnd"><path style="stroke-width: 2; stroke-dasharray: 1, 0;" class="arrowMarkerPath" d="M 1,1 l 9,9 M 10,1 l -9,9"/></marker><marker orient="auto" markerHeight="11" markerWidth="11" markerUnits="userSpaceOnUse" refY="5.2" refX="-1" viewBox="0 0 11 11" class="marker cross flowchart-v2" id="my-svg_flowchart-v2-crossStart"><path style="stroke-width: 2; stroke-dasharray: 1, 0;" class="arrowMarkerPath" d="M 1,1 l 9,9 M 10,1 l -9,9"/></marker><g class="root"><g class="clusters"><g data-look="classic" id="MEMORY" class="cluster layer"><rect height="416" width="356.578125" y="42.5" x="2406.8125" style="fill:transparent !important;stroke:#30363d !important;stroke-width:1px !important"/><g transform="translate(2561.1015625, 42.5)" class="cluster-label"><foreignObject height="24" width="48"><div style="display: table-cell; white-space: nowrap; line-height: 1.5; max-width: 200px; text-align: center;" xmlns="http://www.w3.org/1999/xhtml"><span style="color:#c9d1d9 !important" class="nodeLabel"><p>记忆层</p></span></div></foreignObject></g></g><g data-look="classic" id="OUTPUT" class="cluster layer"><rect height="428" width="1568.90625" y="551" x="2001.484375" style="fill:transparent !important;stroke:#30363d !important;stroke-width:1px !important"/><g transform="translate(2761.9375, 551)" class="cluster-label"><foreignObject height="24" width="48"><div style="display: table-cell; white-space: nowrap; line-height: 1.5; max-width: 200px; text-align: center;" xmlns="http://www.w3.org/1999/xhtml"><span style="color:#c9d1d9 !important" class="nodeLabel"><p>输出层</p></span></div></foreignObject></g></g><g data-look="classic" id="LLM_CORE" class="cluster layer"><rect height="317" width="1259.875" y="214" x="1096.9375" style="fill:transparent !important;stroke:#30363d !important;stroke-width:1px !important"/><g transform="translate(1686.6875, 214)" class="cluster-label"><foreignObject height="24" width="80.375"><div style="display: table-cell; white-space: nowrap; line-height: 1.5; max-width: 200px; text-align: center;" xmlns="http://www.w3.org/1999/xhtml"><span style="color:#c9d1d9 !important" class="nodeLabel"><p>LLM 驱动层</p></span></div></foreignObject></g></g><g data-look="classic" id="PRE" class="cluster layer"><rect height="564" width="520.9375" y="8" x="526" style="fill:transparent !important;stroke:#30363d !important;stroke-width:1px !important"/><g transform="translate(754.46875, 8)" class="cluster-label"><foreignObject height="24" width="64"><div style="display: table-cell; white-space: nowrap; line-height: 1.5; max-width: 200px; text-align: center;" xmlns="http://www.w3.org/1999/xhtml"><span style="color:#c9d1d9 !important" class="nodeLabel"><p>预处理层</p></span></div></foreignObject></g></g><g data-look="classic" id="INPUT" class="cluster layer"><rect height="422" width="468" y="84.5" x="8" style="fill:transparent !important;stroke:#30363d !important;stroke-width:1px !important"/><g transform="translate(218, 84.5)" class="cluster-label"><foreignObject height="24" width="48"><div style="display: table-cell; white-space: nowrap; line-height: 1.5; max-width: 200px; text-align: center;" xmlns="http://www.w3.org/1999/xhtml"><span style="color:#c9d1d9 !important" class="nodeLabel"><p>输入层</p></span></div></foreignObject></g></g></g><g class="edgePaths"><path marker-end="url(#my-svg_flowchart-v2-pointEnd__7d8590)" style="stroke:#7d8590;stroke-width:1px;fill:none;" class="edge-thickness-normal edge-pattern-solid edge-thickness-normal edge-pattern-solid flowchart-link" id="L_USER_TEXT_IN_0" d="M217,290.158L221.167,291.048C225.333,291.939,233.667,293.719,241.333,294.61C249,295.5,256,295.5,259.5,295.5L263,295.5"/><path marker-end="url(#my-svg_flowchart-v2-pointEnd__7d8590)" style="stroke:#7d8590;stroke-width:1px;fill:none;" class="edge-thickness-normal edge-pattern-solid edge-thickness-normal edge-pattern-solid flowchart-link" id="L_USER_VOICE_IN_0" d="M170.083,228.5L182.069,217.333C194.055,206.167,218.028,183.833,233.514,172.667C249,161.5,256,161.5,259.5,161.5L263,161.5"/><path marker-end="url(#my-svg_flowchart-v2-pointEnd__7d8590)" style="stroke:#7d8590;stroke-width:1px;fill:none;" class="edge-thickness-normal edge-pattern-solid edge-thickness-normal edge-pattern-solid flowchart-link" id="L_USER_ROLE_0" d="M155.906,312.5L170.255,332C184.604,351.5,213.302,390.5,231.151,410C249,429.5,256,429.5,259.5,429.5L263,429.5"/><path marker-end="url(#my-svg_flowchart-v2-pointEnd__7d8590)" style="stroke:#7d8590;stroke-width:1px;fill:none;" class="edge-thickness-normal edge-pattern-solid edge-thickness-normal edge-pattern-solid flowchart-link" id="L_VOICE_IN_ASR_0" d="M451,161.5L455.167,161.5C459.333,161.5,467.667,161.5,476,161.5C484.333,161.5,492.667,161.5,501,161.5C509.333,161.5,517.667,161.5,525.333,161.5C533,161.5,540,161.5,543.5,161.5L547,161.5"/><path marker-end="url(#my-svg_flowchart-v2-pointEnd__7d8590)" style="stroke:#7d8590;stroke-width:1px;fill:none;" class="edge-thickness-normal edge-pattern-solid edge-thickness-normal edge-pattern-solid flowchart-link" id="L_ASR_INPUT_ROUTER_0" d="M735,161.5L739.167,161.5C743.333,161.5,751.667,161.5,767.368,170.263C783.069,179.027,806.138,196.553,817.673,205.317L829.207,214.08"/><path marker-end="url(#my-svg_flowchart-v2-pointEnd__7d8590)" style="stroke:#7d8590;stroke-width:1px;fill:none;" class="edge-thickness-normal edge-pattern-solid edge-thickness-normal edge-pattern-solid flowchart-link" id="L_TEXT_IN_INPUT_ROUTER_0" d="M451,295.5L455.167,295.5C459.333,295.5,467.667,295.5,476,295.5C484.333,295.5,492.667,295.5,501,295.5C509.333,295.5,517.667,295.5,541.333,295.5C565,295.5,604,295.5,643,295.5C682,295.5,721,295.5,744.01,294.888C767.02,294.277,774.04,293.054,777.549,292.442L781.059,291.83"/><path marker-end="url(#my-svg_flowchart-v2-pointEnd__7d8590)" style="stroke:#7d8590;stroke-width:1px;fill:none;" class="edge-thickness-normal edge-pattern-solid edge-thickness-normal edge-pattern-solid flowchart-link" id="L_ROLE_INPUT_ROUTER_0" d="M451,429.5L455.167,429.5C459.333,429.5,467.667,429.5,476,429.5C484.333,429.5,492.667,429.5,501,429.5C509.333,429.5,517.667,429.5,541.333,429.5C565,429.5,604,429.5,643,429.5C682,429.5,721,429.5,755.844,412.495C790.688,395.49,821.376,361.48,836.72,344.475L852.064,327.47"/><path marker-end="url(#my-svg_flowchart-v2-pointEnd__7d8590)" style="stroke:#7d8590;stroke-width:1px;fill:none;" class="edge-thickness-normal edge-pattern-solid edge-thickness-normal edge-pattern-solid flowchart-link" id="L_BERT_SHOT_0" d="M1428.391,393.43L1434.482,394.858C1440.573,396.287,1452.755,399.143,1464.271,400.572C1475.786,402,1486.635,402,1492.06,402L1497.484,402"/><path marker-end="url(#my-svg_flowchart-v2-pointEnd__7d8590)" style="stroke:#7d8590;stroke-width:1px;fill:none;" class="edge-thickness-normal edge-pattern-solid edge-thickness-normal edge-pattern-solid flowchart-link" id="L_BERT_LLM_0" d="M1398.631,303.5L1409.682,298.667C1420.733,293.833,1442.835,284.167,1475.311,279.333C1507.786,274.5,1550.635,274.5,1591.56,274.5C1632.484,274.5,1671.484,274.5,1703.982,287.937C1736.48,301.375,1762.475,328.25,1775.473,341.687L1788.471,355.125"/><path marker-end="url(#my-svg_flowchart-v2-pointEnd__7d8590)" style="stroke:#7d8590;stroke-width:1px;fill:none;" class="edge-thickness-normal edge-pattern-solid edge-thickness-normal edge-pattern-solid flowchart-link" id="L_SHOT_LLM_0" d="M1685.484,402L1689.651,402C1693.818,402,1702.151,402,1709.82,402.263C1717.488,402.527,1724.492,403.053,1727.994,403.316L1731.496,403.58"/><path marker-end="url(#my-svg_flowchart-v2-pointEnd__7d8590)" marker-start="url(#my-svg_flowchart-v2-pointStart__7d8590)" style="stroke:#7d8590;stroke-width:1px;fill:none;" class="edge-thickness-normal edge-pattern-solid edge-thickness-normal edge-pattern-solid flowchart-link" id="L_LLM_TOOLS_0" d="M1913.722,355.493L1924.183,347.077C1934.643,338.662,1955.564,321.831,1970.191,313.415C1984.818,305,1993.151,305,2000.818,305C2008.484,305,2015.484,305,2018.984,305L2022.484,305"/><path marker-end="url(#my-svg_flowchart-v2-pointEnd__7d8590)" style="stroke:#7d8590;stroke-width:1px;fill:none;" class="edge-thickness-normal edge-pattern-solid edge-thickness-normal edge-pattern-solid flowchart-link" id="L_TTS_EMOTION_0" d="M2276.719,741.627L2290.068,746.023C2303.417,750.418,2330.115,759.209,2347.63,763.605C2365.146,768,2373.479,768,2381.813,768C2390.146,768,2398.479,768,2416.361,768C2434.242,768,2461.672,768,2475.387,768L2489.102,768"/><path marker-end="url(#my-svg_flowchart-v2-pointEnd__7d8590)" style="stroke:#7d8590;stroke-width:1px;fill:none;" class="edge-thickness-normal edge-pattern-solid edge-thickness-normal edge-pattern-solid flowchart-link" id="L_EMOTION_LIVE2D_0" d="M2677.102,768L2691.483,768C2705.865,768,2734.628,768,2753.176,768C2771.724,768,2780.057,768,2787.724,768C2795.391,768,2802.391,768,2805.891,768L2809.391,768"/><path marker-end="url(#my-svg_flowchart-v2-pointEnd__7d8590)" style="stroke:#7d8590;stroke-width:1px;fill:none;" class="edge-thickness-normal edge-pattern-solid edge-thickness-normal edge-pattern-solid flowchart-link" id="L_TTS_AUDIO_OUT_0" d="M2276.719,668.037L2290.068,662.364C2303.417,656.691,2330.115,645.346,2347.63,639.673C2365.146,634,2373.479,634,2381.813,634C2390.146,634,2398.479,634,2432.361,634C2466.242,634,2525.672,634,2585.102,634C2644.531,634,2703.961,634,2737.842,634C2771.724,634,2780.057,634,2803.724,634C2827.391,634,2866.391,634,2905.391,634C2944.391,634,2983.391,634,3009.057,634C3034.724,634,3047.057,634,3053.224,634L3059.391,634"/><path marker-end="url(#my-svg_flowchart-v2-pointEnd__7d8590)" style="stroke:#7d8590;stroke-width:1px;fill:none;" class="edge-thickness-normal edge-pattern-solid edge-thickness-normal edge-pattern-solid flowchart-link" id="L_AUDIO_OUT_USER_OUT_0" d="M3247.391,634L3254.224,634C3261.057,634,3274.724,634,3297.834,650.854C3320.944,667.708,3353.497,701.415,3369.774,718.269L3386.05,735.123"/><path marker-end="url(#my-svg_flowchart-v2-pointEnd__7d8590)" style="stroke:#7d8590;stroke-width:1px;fill:none;" class="edge-thickness-normal edge-pattern-solid edge-thickness-normal edge-pattern-solid flowchart-link" id="L_LIVE2D_AVATAR_OUT_0" d="M2997.391,768L3001.557,768C3005.724,768,3014.057,768,3021.724,768C3029.391,768,3036.391,768,3039.891,768L3043.391,768"/><path marker-end="url(#my-svg_flowchart-v2-pointEnd__7d8590)" style="stroke:#7d8590;stroke-width:1px;fill:none;" class="edge-thickness-normal edge-pattern-solid edge-thickness-normal edge-pattern-solid flowchart-link" id="L_AVATAR_OUT_USER_OUT_0" d="M3263.391,768L3267.557,768C3271.724,768,3280.057,768,3287.726,768.298C3295.395,768.596,3302.4,769.192,3305.903,769.49L3309.405,769.788"/><path marker-end="url(#my-svg_flowchart-v2-pointEnd__7d8590)" style="stroke:#7d8590;stroke-width:1px;fill:none;" class="edge-thickness-normal edge-pattern-solid edge-thickness-normal edge-pattern-solid flowchart-link" id="L_TEXT_OUT_USER_OUT_0" d="M3247.391,902L3254.224,902C3261.057,902,3274.724,902,3296.463,889.103C3318.202,876.206,3348.013,850.412,3362.919,837.514L3377.825,824.617"/><path marker-end="url(#my-svg_flowchart-v2-pointEnd__7d8590)" style="stroke:#7d8590;stroke-width:1px;fill:none;" class="edge-thickness-normal edge-pattern-solid edge-thickness-normal edge-pattern-solid flowchart-link" id="L_INPUT_ROUTER_BERT_0" d="M992.518,324.5L1001.588,330C1010.658,335.5,1028.798,346.5,1042.034,352C1055.271,357.5,1063.604,357.5,1071.938,357.5C1080.271,357.5,1088.604,357.5,1096.271,357.5C1103.938,357.5,1110.938,357.5,1114.438,357.5L1117.938,357.5"/><path marker-end="url(#my-svg_flowchart-v2-pointEnd__7d8590)" style="stroke:#7d8590;stroke-width:1px;fill:none;" class="edge-thickness-normal edge-pattern-solid edge-thickness-normal edge-pattern-solid flowchart-link" id="L_INPUT_ROUTER_LLM_0" d="M939.587,324.5L957.479,351.25C975.37,378,1011.154,431.5,1033.212,458.25C1055.271,485,1063.604,485,1071.938,485C1080.271,485,1088.604,485,1122.475,485C1156.346,485,1215.755,485,1277.089,485C1338.422,485,1401.68,485,1454.733,485C1507.786,485,1550.635,485,1591.56,485C1632.484,485,1671.484,485,1696.169,482.154C1720.854,479.308,1731.224,473.616,1736.409,470.771L1741.594,467.925"/><path marker-end="url(#my-svg_flowchart-v2-pointEnd__7d8590)" style="stroke:#7d8590;stroke-width:1px;fill:none;" class="edge-thickness-normal edge-pattern-solid edge-thickness-normal edge-pattern-solid flowchart-link" id="L_LLM_TTS_0" d="M1939.887,466L1945.987,469.417C1952.086,472.833,1964.285,479.667,1974.551,483.083C1984.818,486.5,1993.151,486.5,2019.343,514.145C2045.534,541.79,2089.584,597.081,2111.609,624.726L2133.634,652.371"/><path marker-end="url(#my-svg_flowchart-v2-pointEnd__7d8590)" style="stroke:#7d8590;stroke-width:1px;fill:none;" class="edge-thickness-normal edge-pattern-solid edge-thickness-normal edge-pattern-solid flowchart-link" id="L_LLM_TEXT_OUT_0" d="M1951.484,456.256L1955.651,457.963C1959.818,459.67,1968.151,463.085,1976.484,464.793C1984.818,466.5,1993.151,466.5,2026.928,466.5C2060.706,466.5,2119.927,466.5,2179.148,466.5C2238.37,466.5,2297.591,466.5,2331.368,539.083C2365.146,611.667,2373.479,756.833,2381.813,829.417C2390.146,902,2398.479,902,2432.361,902C2466.242,902,2525.672,902,2585.102,902C2644.531,902,2703.961,902,2737.842,902C2771.724,902,2780.057,902,2803.724,902C2827.391,902,2866.391,902,2905.391,902C2944.391,902,2983.391,902,3009.057,902C3034.724,902,3047.057,902,3053.224,902L3059.391,902"/><path marker-end="url(#my-svg_flowchart-v2-pointEnd__7d8590)" style="stroke:#7d8590;stroke-width:1px;fill:none;" class="edge-thickness-normal edge-pattern-solid edge-thickness-normal edge-pattern-solid flowchart-link" id="L_INPUT_ROUTER_MEM_FILE_0" d="M950.853,216.5L966.867,198.25C982.881,180,1014.909,143.5,1035.09,125.25C1055.271,107,1063.604,107,1071.938,107C1080.271,107,1088.604,107,1122.475,107C1156.346,107,1215.755,107,1277.089,107C1338.422,107,1401.68,107,1454.733,107C1507.786,107,1550.635,107,1591.56,107C1632.484,107,1671.484,107,1713.151,107C1754.818,107,1799.151,107,1843.484,107C1887.818,107,1932.151,107,1958.484,107C1984.818,107,1993.151,107,2026.928,107C2060.706,107,2119.927,107,2179.148,107C2238.37,107,2297.591,107,2331.368,107C2365.146,107,2373.479,107,2381.813,107C2390.146,107,2398.479,107,2406.162,107.789C2413.845,108.578,2420.877,110.155,2424.393,110.944L2427.91,111.733"/><path marker-end="url(#my-svg_flowchart-v2-pointEnd__7d8590)" marker-start="url(#my-svg_flowchart-v2-pointStart__7d8590)" style="stroke:#7d8590;stroke-width:1px;fill:none;" class="edge-thickness-normal edge-pattern-solid edge-thickness-normal edge-pattern-solid flowchart-link" id="L_INPUT_ROUTER_MEMOS_0" d="M1008.27,214.618L1014.715,211.182C1021.159,207.745,1034.048,200.873,1044.66,197.436C1055.271,194,1063.604,194,1071.938,194C1080.271,194,1088.604,194,1122.475,194C1156.346,194,1215.755,194,1277.089,194C1338.422,194,1401.68,194,1454.733,194C1507.786,194,1550.635,194,1591.56,194C1632.484,194,1671.484,194,1713.151,194C1754.818,194,1799.151,194,1843.484,194C1887.818,194,1932.151,194,1958.484,194C1984.818,194,1993.151,194,2026.928,194C2060.706,194,2119.927,194,2179.148,194C2238.37,194,2297.591,194,2331.368,201C2365.146,208,2373.479,222,2381.813,229C2390.146,236,2398.479,236,2416.406,241.325C2434.332,246.65,2461.852,257.301,2475.611,262.626L2489.371,267.951"/><path marker-end="url(#my-svg_flowchart-v2-pointEnd__7d8590)" marker-start="url(#my-svg_flowchart-v2-pointStart__7d8590)" style="stroke:#7d8590;stroke-width:1px;fill:none;" class="edge-thickness-normal edge-pattern-solid edge-thickness-normal edge-pattern-solid flowchart-link" id="L_TOOLS_MEM_FILE_0" d="M2335.775,283.401L2339.281,282.918C2342.788,282.434,2349.8,281.467,2357.473,270.234C2365.146,259,2373.479,237.5,2381.813,226.75C2390.146,216,2398.479,216,2408.484,213.741C2418.489,211.481,2430.165,206.962,2436.003,204.703L2441.841,202.444"/><path marker-end="url(#my-svg_flowchart-v2-pointEnd__7d8590)" style="stroke:#7d8590;stroke-width:1px;fill:none;" class="edge-thickness-normal edge-pattern-solid edge-thickness-normal edge-pattern-solid flowchart-link" id="L_TOOLS_MEMOS_0" d="M2331.813,334.645L2335.979,335.454C2340.146,336.264,2348.479,337.882,2356.813,338.691C2365.146,339.5,2373.479,339.5,2381.813,339.5C2390.146,339.5,2398.479,339.5,2416.373,336.844C2434.266,334.187,2461.72,328.875,2475.447,326.219L2489.174,323.562"/><path marker-end="url(#my-svg_flowchart-v2-pointEnd__7d8590)" style="stroke:#7d8590;stroke-width:1px;fill:none;" class="edge-thickness-normal edge-pattern-solid edge-thickness-normal edge-pattern-solid flowchart-link" id="L_LLM_MEMOS_0" d="M1951.484,405.504L1955.651,405.253C1959.818,405.003,1968.151,404.501,1976.484,404.251C1984.818,404,1993.151,404,2026.928,404C2060.706,404,2119.927,404,2179.148,404C2238.37,404,2297.591,404,2331.368,404C2365.146,404,2373.479,404,2381.813,404C2390.146,404,2398.479,404,2416.445,396.338C2434.41,388.676,2462.007,373.352,2475.806,365.69L2489.605,358.027"/></g><g class="edgeLabels"><g class="edgeLabel"><g transform="translate(0, 0)" class="label"><foreignObject height="0" width="0"><div class="labelBkg" xmlns="http://www.w3.org/1999/xhtml" style="stroke: rgb(125, 133, 144); stroke-width: 1px; display: table-cell; white-space: nowrap; line-height: 1.5; max-width: 200px; text-align: center;"><span class="edgeLabel" style=";stroke:#7d8590;stroke-width:1px;color:none"></span></div></foreignObject></g></g><g class="edgeLabel"><g transform="translate(0, 0)" class="label"><foreignObject height="0" width="0"><div class="labelBkg" xmlns="http://www.w3.org/1999/xhtml" style="stroke: rgb(125, 133, 144); stroke-width: 1px; display: table-cell; white-space: nowrap; line-height: 1.5; max-width: 200px; text-align: center;"><span class="edgeLabel" style=";stroke:#7d8590;stroke-width:1px;color:none"></span></div></foreignObject></g></g><g class="edgeLabel"><g transform="translate(0, 0)" class="label"><foreignObject height="0" width="0"><div class="labelBkg" xmlns="http://www.w3.org/1999/xhtml" style="stroke: rgb(125, 133, 144); stroke-width: 1px; display: table-cell; white-space: nowrap; line-height: 1.5; max-width: 200px; text-align: center;"><span class="edgeLabel" style=";stroke:#7d8590;stroke-width:1px;color:none"></span></div></foreignObject></g></g><g class="edgeLabel"><g transform="translate(0, 0)" class="label"><foreignObject height="0" width="0"><div class="labelBkg" xmlns="http://www.w3.org/1999/xhtml" style="stroke: rgb(125, 133, 144); stroke-width: 1px; display: table-cell; white-space: nowrap; line-height: 1.5; max-width: 200px; text-align: center;"><span class="edgeLabel" style=";stroke:#7d8590;stroke-width:1px;color:none"></span></div></foreignObject></g></g><g class="edgeLabel"><g transform="translate(0, 0)" class="label"><foreignObject height="0" width="0"><div class="labelBkg" xmlns="http://www.w3.org/1999/xhtml" style="stroke: rgb(125, 133, 144); stroke-width: 1px; display: table-cell; white-space: nowrap; line-height: 1.5; max-width: 200px; text-align: center;"><span class="edgeLabel" style=";stroke:#7d8590;stroke-width:1px;color:none"></span></div></foreignObject></g></g><g class="edgeLabel"><g transform="translate(0, 0)" class="label"><foreignObject height="0" width="0"><div class="labelBkg" xmlns="http://www.w3.org/1999/xhtml" style="stroke: rgb(125, 133, 144); stroke-width: 1px; display: table-cell; white-space: nowrap; line-height: 1.5; max-width: 200px; text-align: center;"><span class="edgeLabel" style=";stroke:#7d8590;stroke-width:1px;color:none"></span></div></foreignObject></g></g><g class="edgeLabel"><g transform="translate(0, 0)" class="label"><foreignObject height="0" width="0"><div class="labelBkg" xmlns="http://www.w3.org/1999/xhtml" style="stroke: rgb(125, 133, 144); stroke-width: 1px; display: table-cell; white-space: nowrap; line-height: 1.5; max-width: 200px; text-align: center;"><span class="edgeLabel" style=";stroke:#7d8590;stroke-width:1px;color:none"></span></div></foreignObject></g></g><g transform="translate(1464.9375, 402)" class="edgeLabel"><g transform="translate(-11.546875, -12)" class="label"><foreignObject height="24" width="23.09375"><div class="labelBkg" xmlns="http://www.w3.org/1999/xhtml" style="stroke: rgb(125, 133, 144); stroke-width: 1px; display: table-cell; white-space: nowrap; line-height: 1.5; max-width: 200px; text-align: center;"><span class="edgeLabel" style=";stroke:#7d8590;stroke-width:1px;color:none"><p>yes</p></span></div></foreignObject></g></g><g transform="translate(1593.484375, 274.5)" class="edgeLabel"><g transform="translate(-8.6640625, -12)" class="label"><foreignObject height="24" width="17.328125"><div class="labelBkg" xmlns="http://www.w3.org/1999/xhtml" style="stroke: rgb(125, 133, 144); stroke-width: 1px; display: table-cell; white-space: nowrap; line-height: 1.5; max-width: 200px; text-align: center;"><span class="edgeLabel" style=";stroke:#7d8590;stroke-width:1px;color:none"><p>no</p></span></div></foreignObject></g></g><g class="edgeLabel"><g transform="translate(0, 0)" class="label"><foreignObject height="0" width="0"><div class="labelBkg" xmlns="http://www.w3.org/1999/xhtml" style="stroke: rgb(125, 133, 144); stroke-width: 1px; display: table-cell; white-space: nowrap; line-height: 1.5; max-width: 200px; text-align: center;"><span class="edgeLabel" style=";stroke:#7d8590;stroke-width:1px;color:none"></span></div></foreignObject></g></g><g class="edgeLabel"><g transform="translate(0, 0)" class="label"><foreignObject height="0" width="0"><div class="labelBkg" xmlns="http://www.w3.org/1999/xhtml" style="stroke: rgb(125, 133, 144); stroke-width: 1px; display: table-cell; white-space: nowrap; line-height: 1.5; max-width: 200px; text-align: center;"><span class="edgeLabel" style=";stroke:#7d8590;stroke-width:1px;color:none"></span></div></foreignObject></g></g><g class="edgeLabel"><g transform="translate(0, 0)" class="label"><foreignObject height="0" width="0"><div class="labelBkg" xmlns="http://www.w3.org/1999/xhtml" style="stroke: rgb(125, 133, 144); stroke-width: 1px; display: table-cell; white-space: nowrap; line-height: 1.5; max-width: 200px; text-align: center;"><span class="edgeLabel" style=";stroke:#7d8590;stroke-width:1px;color:none"></span></div></foreignObject></g></g><g class="edgeLabel"><g transform="translate(0, 0)" class="label"><foreignObject height="0" width="0"><div class="labelBkg" xmlns="http://www.w3.org/1999/xhtml" style="stroke: rgb(125, 133, 144); stroke-width: 1px; display: table-cell; white-space: nowrap; line-height: 1.5; max-width: 200px; text-align: center;"><span class="edgeLabel" style=";stroke:#7d8590;stroke-width:1px;color:none"></span></div></foreignObject></g></g><g class="edgeLabel"><g transform="translate(0, 0)" class="label"><foreignObject height="0" width="0"><div class="labelBkg" xmlns="http://www.w3.org/1999/xhtml" style="stroke: rgb(125, 133, 144); stroke-width: 1px; display: table-cell; white-space: nowrap; line-height: 1.5; max-width: 200px; text-align: center;"><span class="edgeLabel" style=";stroke:#7d8590;stroke-width:1px;color:none"></span></div></foreignObject></g></g><g class="edgeLabel"><g transform="translate(0, 0)" class="label"><foreignObject height="0" width="0"><div class="labelBkg" xmlns="http://www.w3.org/1999/xhtml" style="stroke: rgb(125, 133, 144); stroke-width: 1px; display: table-cell; white-space: nowrap; line-height: 1.5; max-width: 200px; text-align: center;"><span class="edgeLabel" style=";stroke:#7d8590;stroke-width:1px;color:none"></span></div></foreignObject></g></g><g class="edgeLabel"><g transform="translate(0, 0)" class="label"><foreignObject height="0" width="0"><div class="labelBkg" xmlns="http://www.w3.org/1999/xhtml" style="stroke: rgb(125, 133, 144); stroke-width: 1px; display: table-cell; white-space: nowrap; line-height: 1.5; max-width: 200px; text-align: center;"><span class="edgeLabel" style=";stroke:#7d8590;stroke-width:1px;color:none"></span></div></foreignObject></g></g><g class="edgeLabel"><g transform="translate(0, 0)" class="label"><foreignObject height="0" width="0"><div class="labelBkg" xmlns="http://www.w3.org/1999/xhtml" style="stroke: rgb(125, 133, 144); stroke-width: 1px; display: table-cell; white-space: nowrap; line-height: 1.5; max-width: 200px; text-align: center;"><span class="edgeLabel" style=";stroke:#7d8590;stroke-width:1px;color:none"></span></div></foreignObject></g></g><g class="edgeLabel"><g transform="translate(0, 0)" class="label"><foreignObject height="0" width="0"><div class="labelBkg" xmlns="http://www.w3.org/1999/xhtml" style="stroke: rgb(125, 133, 144); stroke-width: 1px; display: table-cell; white-space: nowrap; line-height: 1.5; max-width: 200px; text-align: center;"><span class="edgeLabel" style=";stroke:#7d8590;stroke-width:1px;color:none"></span></div></foreignObject></g></g><g class="edgeLabel"><g transform="translate(0, 0)" class="label"><foreignObject height="0" width="0"><div class="labelBkg" xmlns="http://www.w3.org/1999/xhtml" style="stroke: rgb(125, 133, 144); stroke-width: 1px; display: table-cell; white-space: nowrap; line-height: 1.5; max-width: 200px; text-align: center;"><span class="edgeLabel" style=";stroke:#7d8590;stroke-width:1px;color:none"></span></div></foreignObject></g></g><g class="edgeLabel"><g transform="translate(0, 0)" class="label"><foreignObject height="0" width="0"><div class="labelBkg" xmlns="http://www.w3.org/1999/xhtml" style="stroke: rgb(125, 133, 144); stroke-width: 1px; display: table-cell; white-space: nowrap; line-height: 1.5; max-width: 200px; text-align: center;"><span class="edgeLabel" style=";stroke:#7d8590;stroke-width:1px;color:none"></span></div></foreignObject></g></g><g class="edgeLabel"><g transform="translate(0, 0)" class="label"><foreignObject height="0" width="0"><div class="labelBkg" xmlns="http://www.w3.org/1999/xhtml" style="stroke: rgb(125, 133, 144); stroke-width: 1px; display: table-cell; white-space: nowrap; line-height: 1.5; max-width: 200px; text-align: center;"><span class="edgeLabel" style=";stroke:#7d8590;stroke-width:1px;color:none"></span></div></foreignObject></g></g><g class="edgeLabel"><g transform="translate(0, 0)" class="label"><foreignObject height="0" width="0"><div class="labelBkg" xmlns="http://www.w3.org/1999/xhtml" style="stroke: rgb(125, 133, 144); stroke-width: 1px; display: table-cell; white-space: nowrap; line-height: 1.5; max-width: 200px; text-align: center;"><span class="edgeLabel" style=";stroke:#7d8590;stroke-width:1px;color:none"></span></div></foreignObject></g></g><g class="edgeLabel"><g transform="translate(0, 0)" class="label"><foreignObject height="0" width="0"><div class="labelBkg" xmlns="http://www.w3.org/1999/xhtml" style="stroke: rgb(125, 133, 144); stroke-width: 1px; display: table-cell; white-space: nowrap; line-height: 1.5; max-width: 200px; text-align: center;"><span class="edgeLabel" style=";stroke:#7d8590;stroke-width:1px;color:none"></span></div></foreignObject></g></g><g class="edgeLabel"><g transform="translate(0, 0)" class="label"><foreignObject height="0" width="0"><div class="labelBkg" xmlns="http://www.w3.org/1999/xhtml" style="stroke: rgb(125, 133, 144); stroke-width: 1px; display: table-cell; white-space: nowrap; line-height: 1.5; max-width: 200px; text-align: center;"><span class="edgeLabel" style=";stroke:#7d8590;stroke-width:1px;color:none"></span></div></foreignObject></g></g><g class="edgeLabel"><g transform="translate(0, 0)" class="label"><foreignObject height="0" width="0"><div class="labelBkg" xmlns="http://www.w3.org/1999/xhtml" style="stroke: rgb(125, 133, 144); stroke-width: 1px; display: table-cell; white-space: nowrap; line-height: 1.5; max-width: 200px; text-align: center;"><span class="edgeLabel" style=";stroke:#7d8590;stroke-width:1px;color:none"></span></div></foreignObject></g></g><g class="edgeLabel"><g transform="translate(0, 0)" class="label"><foreignObject height="0" width="0"><div class="labelBkg" xmlns="http://www.w3.org/1999/xhtml" style="stroke: rgb(125, 133, 144); stroke-width: 1px; display: table-cell; white-space: nowrap; line-height: 1.5; max-width: 200px; text-align: center;"><span class="edgeLabel" style=";stroke:#7d8590;stroke-width:1px;color:none"></span></div></foreignObject></g></g><g class="edgeLabel"><g transform="translate(0, 0)" class="label"><foreignObject height="0" width="0"><div class="labelBkg" xmlns="http://www.w3.org/1999/xhtml" style="stroke: rgb(125, 133, 144); stroke-width: 1px; display: table-cell; white-space: nowrap; line-height: 1.5; max-width: 200px; text-align: center;"><span class="edgeLabel" style=";stroke:#7d8590;stroke-width:1px;color:none"></span></div></foreignObject></g></g></g><g class="nodes"><g transform="translate(125, 270.5)" id="flowchart-USER-0" class="node default endpoint"><rect height="84" width="184" y="-42" x="-92" style="fill:#0f141a !important;stroke:#7d8590 !important;stroke-width:1px !important;rx:8 !important;ry:8 !important" class="basic label-container"/><g transform="translate(-32, -12)" style="color:#e6edf3 !important" class="label"><rect/><foreignObject height="24" width="64"><div xmlns="http://www.w3.org/1999/xhtml" style="color: rgb(230, 237, 243) !important; display: table-cell; white-space: nowrap; line-height: 1.5; max-width: 200px; text-align: center;"><span class="nodeLabel" style="color:#e6edf3 !important"><p>用户输入</p></span></div></foreignObject></g></g><g transform="translate(359, 295.5)" id="flowchart-TEXT_IN-1" class="node default node"><rect height="84" width="184" y="-42" x="-92" style="fill:#161b22 !important;stroke:#8b949e !important;stroke-width:1px !important;rx:8 !important;ry:8 !important" class="basic label-container"/><g transform="translate(-32, -12)" style="color:#e6edf3 !important" class="label"><rect/><foreignObject height="24" width="64"><div xmlns="http://www.w3.org/1999/xhtml" style="color: rgb(230, 237, 243) !important; display: table-cell; white-space: nowrap; line-height: 1.5; max-width: 200px; text-align: center;"><span class="nodeLabel" style="color:#e6edf3 !important"><p>文本输入</p></span></div></foreignObject></g></g><g transform="translate(359, 161.5)" id="flowchart-VOICE_IN-2" class="node default node"><rect height="84" width="184" y="-42" x="-92" style="fill:#161b22 !important;stroke:#8b949e !important;stroke-width:1px !important;rx:8 !important;ry:8 !important" class="basic label-container"/><g transform="translate(-32, -12)" style="color:#e6edf3 !important" class="label"><rect/><foreignObject height="24" width="64"><div xmlns="http://www.w3.org/1999/xhtml" style="color: rgb(230, 237, 243) !important; display: table-cell; white-space: nowrap; line-height: 1.5; max-width: 200px; text-align: center;"><span class="nodeLabel" style="color:#e6edf3 !important"><p>语音输入</p></span></div></foreignObject></g></g><g transform="translate(359, 429.5)" id="flowchart-ROLE-3" class="node default node"><rect height="84" width="184" y="-42" x="-92" style="fill:#161b22 !important;stroke:#8b949e !important;stroke-width:1px !important;rx:8 !important;ry:8 !important" class="basic label-container"/><g transform="translate(-32, -12)" style="color:#e6edf3 !important" class="label"><rect/><foreignObject height="24" width="64"><div xmlns="http://www.w3.org/1999/xhtml" style="color: rgb(230, 237, 243) !important; display: table-cell; white-space: nowrap; line-height: 1.5; max-width: 200px; text-align: center;"><span class="nodeLabel" style="color:#e6edf3 !important"><p>角色预设</p></span></div></foreignObject></g></g><g transform="translate(643, 161.5)" id="flowchart-ASR-10" class="node default node"><rect height="108" width="184" y="-54" x="-92" style="fill:#161b22 !important;stroke:#8b949e !important;stroke-width:1px !important;rx:8 !important;ry:8 !important" class="basic label-container"/><g transform="translate(-32, -24)" style="color:#e6edf3 !important" class="label"><rect/><foreignObject height="48" width="64"><div xmlns="http://www.w3.org/1999/xhtml" style="color: rgb(230, 237, 243) !important; display: table-cell; white-space: nowrap; line-height: 1.5; max-width: 200px; text-align: center;"><span class="nodeLabel" style="color:#e6edf3 !important"><p>ASR<br />语音识别</p></span></div></foreignObject></g></g><g transform="translate(903.46875, 270.5)" id="flowchart-INPUT_ROUTER-11" class="node default node"><rect height="108" width="236.9375" y="-54" x="-118.46875" style="fill:#161b22 !important;stroke:#8b949e !important;stroke-width:1px !important;rx:8 !important;ry:8 !important" class="basic label-container"/><g transform="translate(-58.46875, -24)" style="color:#e6edf3 !important" class="label"><rect/><foreignObject height="48" width="116.9375"><div xmlns="http://www.w3.org/1999/xhtml" style="color: rgb(230, 237, 243) !important; display: table-cell; white-space: nowrap; line-height: 1.5; max-width: 200px; text-align: center;"><span class="nodeLabel" style="color:#e6edf3 !important"><p>InputRouter<br />路由 &amp; 插件钩子</p></span></div></foreignObject></g></g><g transform="translate(1275.1640625, 357.5)" id="flowchart-BERT-19" class="node default node"><rect height="108" width="306.453125" y="-54" x="-153.2265625" style="fill:#161b22 !important;stroke:#8b949e !important;stroke-width:1px !important;rx:8 !important;ry:8 !important" class="basic label-container"/><g transform="translate(-93.2265625, -24)" style="color:#e6edf3 !important" class="label"><rect/><foreignObject height="48" width="186.453125"><div xmlns="http://www.w3.org/1999/xhtml" style="color: rgb(230, 237, 243) !important; display: table-cell; white-space: nowrap; line-height: 1.5; max-width: 200px; text-align: center;"><span class="nodeLabel" style="color:#e6edf3 !important"><p>BERT<br />截图意图分类（yes / no）</p></span></div></foreignObject></g></g><g transform="translate(1593.484375, 402)" id="flowchart-SHOT-20" class="node default node"><rect height="84" width="184" y="-42" x="-92" style="fill:#161b22 !important;stroke:#8b949e !important;stroke-width:1px !important;rx:8 !important;ry:8 !important" class="basic label-container"/><g transform="translate(-32, -12)" style="color:#e6edf3 !important" class="label"><rect/><foreignObject height="24" width="64"><div xmlns="http://www.w3.org/1999/xhtml" style="color: rgb(230, 237, 243) !important; display: table-cell; white-space: nowrap; line-height: 1.5; max-width: 200px; text-align: center;"><span class="nodeLabel" style="color:#e6edf3 !important"><p>截图采集</p></span></div></foreignObject></g></g><g transform="translate(1843.484375, 412)" id="flowchart-LLM-21" class="node default node"><rect height="108" width="216" y="-54" x="-108" style="fill:#161b22 !important;stroke:#8b949e !important;stroke-width:1px !important;rx:8 !important;ry:8 !important" class="basic label-container"/><g transform="translate(-48, -24)" style="color:#e6edf3 !important" class="label"><rect/><foreignObject height="48" width="96"><div xmlns="http://www.w3.org/1999/xhtml" style="color: rgb(230, 237, 243) !important; display: table-cell; white-space: nowrap; line-height: 1.5; max-width: 200px; text-align: center;"><span class="nodeLabel" style="color:#e6edf3 !important"><p>LLM API<br />多轮对话生成</p></span></div></foreignObject></g></g><g transform="translate(2179.1484375, 305)" id="flowchart-TOOLS-22" class="node default node"><rect height="108" width="305.328125" y="-54" x="-152.6640625" style="fill:#161b22 !important;stroke:#8b949e !important;stroke-width:1px !important;rx:8 !important;ry:8 !important" class="basic label-container"/><g transform="translate(-92.6640625, -24)" style="color:#e6edf3 !important" class="label"><rect/><foreignObject height="48" width="185.328125"><div xmlns="http://www.w3.org/1999/xhtml" style="color: rgb(230, 237, 243) !important; display: table-cell; white-space: nowrap; line-height: 1.5; max-width: 200px; text-align: center;"><span class="nodeLabel" style="color:#e6edf3 !important"><p>工具调用循环<br />RAG / MCP / function call</p></span></div></foreignObject></g></g><g transform="translate(2179.1484375, 709.5)" id="flowchart-TTS-31" class="node default node"><rect height="108" width="195.140625" y="-54" x="-97.5703125" style="fill:#161b22 !important;stroke:#8b949e !important;stroke-width:1px !important;rx:8 !important;ry:8 !important" class="basic label-container"/><g transform="translate(-37.5703125, -24)" style="color:#e6edf3 !important" class="label"><rect/><foreignObject height="48" width="75.140625"><div xmlns="http://www.w3.org/1999/xhtml" style="color: rgb(230, 237, 243) !important; display: table-cell; white-space: nowrap; line-height: 1.5; max-width: 200px; text-align: center;"><span class="nodeLabel" style="color:#e6edf3 !important"><p>TTS / VITS<br />语音生成</p></span></div></foreignObject></g></g><g transform="translate(2585.1015625, 768)" id="flowchart-EMOTION-32" class="node default node"><rect height="108" width="184" y="-54" x="-92" style="fill:#161b22 !important;stroke:#8b949e !important;stroke-width:1px !important;rx:8 !important;ry:8 !important" class="basic label-container"/><g transform="translate(-32, -24)" style="color:#e6edf3 !important" class="label"><rect/><foreignObject height="48" width="64"><div xmlns="http://www.w3.org/1999/xhtml" style="color: rgb(230, 237, 243) !important; display: table-cell; white-space: nowrap; line-height: 1.5; max-width: 200px; text-align: center;"><span class="nodeLabel" style="color:#e6edf3 !important"><p>情绪动作<br />同步渲染</p></span></div></foreignObject></g></g><g transform="translate(2905.390625, 768)" id="flowchart-LIVE2D-33" class="node default node"><rect height="108" width="184" y="-54" x="-92" style="fill:#161b22 !important;stroke:#8b949e !important;stroke-width:1px !important;rx:8 !important;ry:8 !important" class="basic label-container"/><g transform="translate(-32, -24)" style="color:#e6edf3 !important" class="label"><rect/><foreignObject height="48" width="64"><div xmlns="http://www.w3.org/1999/xhtml" style="color: rgb(230, 237, 243) !important; display: table-cell; white-space: nowrap; line-height: 1.5; max-width: 200px; text-align: center;"><span class="nodeLabel" style="color:#e6edf3 !important"><p>Live2D<br />形象渲染</p></span></div></foreignObject></g></g><g transform="translate(3155.390625, 902)" id="flowchart-TEXT_OUT-34" class="node default node"><rect height="84" width="184" y="-42" x="-92" style="fill:#161b22 !important;stroke:#8b949e !important;stroke-width:1px !important;rx:8 !important;ry:8 !important" class="basic label-container"/><g transform="translate(-32, -12)" style="color:#e6edf3 !important" class="label"><rect/><foreignObject height="24" width="64"><div xmlns="http://www.w3.org/1999/xhtml" style="color: rgb(230, 237, 243) !important; display: table-cell; white-space: nowrap; line-height: 1.5; max-width: 200px; text-align: center;"><span class="nodeLabel" style="color:#e6edf3 !important"><p>文本输出</p></span></div></foreignObject></g></g><g transform="translate(3155.390625, 634)" id="flowchart-AUDIO_OUT-35" class="node default node"><rect height="84" width="184" y="-42" x="-92" style="fill:#161b22 !important;stroke:#8b949e !important;stroke-width:1px !important;rx:8 !important;ry:8 !important" class="basic label-container"/><g transform="translate(-32, -12)" style="color:#e6edf3 !important" class="label"><rect/><foreignObject height="24" width="64"><div xmlns="http://www.w3.org/1999/xhtml" style="color: rgb(230, 237, 243) !important; display: table-cell; white-space: nowrap; line-height: 1.5; max-width: 200px; text-align: center;"><span class="nodeLabel" style="color:#e6edf3 !important"><p>语音输出</p></span></div></foreignObject></g></g><g transform="translate(3155.390625, 768)" id="flowchart-AVATAR_OUT-36" class="node default node"><rect height="84" width="216" y="-42" x="-108" style="fill:#161b22 !important;stroke:#8b949e !important;stroke-width:1px !important;rx:8 !important;ry:8 !important" class="basic label-container"/><g transform="translate(-48, -12)" style="color:#e6edf3 !important" class="label"><rect/><foreignObject height="24" width="96"><div xmlns="http://www.w3.org/1999/xhtml" style="color: rgb(230, 237, 243) !important; display: table-cell; white-space: nowrap; line-height: 1.5; max-width: 200px; text-align: center;"><span class="nodeLabel" style="color:#e6edf3 !important"><p>立绘动作输出</p></span></div></foreignObject></g></g><g transform="translate(3429.390625, 780)" id="flowchart-USER_OUT-37" class="node default endpoint"><rect height="84" width="232" y="-42" x="-116" style="fill:#0f141a !important;stroke:#7d8590 !important;stroke-width:1px !important;rx:8 !important;ry:8 !important" class="basic label-container"/><g transform="translate(-56, -12)" style="color:#e6edf3 !important" class="label"><rect/><foreignObject height="24" width="112"><div xmlns="http://www.w3.org/1999/xhtml" style="color: rgb(230, 237, 243) !important; display: table-cell; white-space: nowrap; line-height: 1.5; max-width: 200px; text-align: center;"><span class="nodeLabel" style="color:#e6edf3 !important"><p>用户可感知输出</p></span></div></foreignObject></g></g><g transform="translate(2585.1015625, 147)" id="flowchart-MEM_FILE-49" class="node default node"><rect height="108" width="306.578125" y="-54" x="-153.2890625" style="fill:#161b22 !important;stroke:#8b949e !important;stroke-width:1px !important;rx:8 !important;ry:8 !important" class="basic label-container"/><g transform="translate(-93.2890625, -24)" style="color:#e6edf3 !important" class="label"><rect/><foreignObject height="48" width="186.578125"><div xmlns="http://www.w3.org/1999/xhtml" style="color: rgb(230, 237, 243) !important; display: table-cell; white-space: nowrap; line-height: 1.5; max-width: 200px; text-align: center;"><span class="nodeLabel" style="color:#e6edf3 !important"><p>function call记忆库<br />记忆库.txt（运行时生成）</p></span></div></foreignObject></g></g><g transform="translate(2585.1015625, 305)" id="flowchart-MEMOS-50" class="node default node"><rect height="108" width="184" y="-54" x="-92" style="fill:#161b22 !important;stroke:#8b949e !important;stroke-width:1px !important;rx:8 !important;ry:8 !important" class="basic label-container"/><g transform="translate(-32, -24)" style="color:#e6edf3 !important" class="label"><rect/><foreignObject height="48" width="64"><div xmlns="http://www.w3.org/1999/xhtml" style="color: rgb(230, 237, 243) !important; display: table-cell; white-space: nowrap; line-height: 1.5; max-width: 200px; text-align: center;"><span class="nodeLabel" style="color:#e6edf3 !important"><p>MemOS<br />记忆服务</p></span></div></foreignObject></g></g></g></g><marker orient="auto" markerHeight="8" markerWidth="8" markerUnits="userSpaceOnUse" refY="5" refX="5" viewBox="0 0 10 10" class="marker flowchart-v2" id="my-svg_flowchart-v2-pointEnd__7d8590"><path fill="#7d8590" stroke="#7d8590" style="stroke-width: 1; stroke-dasharray: 1, 0;" class="arrowMarkerPath" d="M 0 0 L 10 5 L 0 10 z"/></marker><marker orient="auto" markerHeight="8" markerWidth="8" markerUnits="userSpaceOnUse" refY="5" refX="4.5" viewBox="0 0 10 10" class="marker flowchart-v2" id="my-svg_flowchart-v2-pointStart__7d8590"><path fill="#7d8590" stroke="#7d8590" style="stroke-width: 1; stroke-dasharray: 1, 0;" class="arrowMarkerPath" d="M 0 5 L 10 10 L 10 0 z"/></marker></g></svg>